<svg width="86" height="86" viewBox="0 0 86 86" fill="none" xmlns="http://www.w3.org/2000/svg">
<g clip-path="url(#clip0_2063_10032)">
<mask id="mask0_2063_10032" style="mask-type:alpha" maskUnits="userSpaceOnUse" x="0" y="0" width="86" height="86">
<path d="M0 30.0246C0 14.8691 0 9.41638 4.70819 4.70819C9.41638 0 14.8691 0 32.1495 0H53.8505C71.1308 0 76.5836 0 81.2918 4.70819C86 9.41638 86 14.8691 86 32.1495V53.8505C86 71.1308 86 76.5836 81.2918 81.2918C76.5836 86 71.1308 86 53.8505 86H32.1495C14.8691 86 9.41638 86 4.70819 81.2918C0 76.5836 0 71.1308 0 53.8505V30.0246Z" fill="white"/>
</mask>
<g mask="url(#mask0_2063_10032)">
<rect width="86" height="86" fill="url(#paint0_radial_2063_10032)"/>
</g>
<g clip-path="url(#clip1_2063_10032)">
<rect x="17" y="50.1738" width="52" height="16.9565" rx="3.26087" stroke="white" stroke-width="2.6087"/>
<path d="M29.8094 63.8262V54.34H32.3848V61.7511H36.22V63.8262H29.8094ZM46.0813 59.0831C46.0813 60.1392 45.876 61.03 45.4653 61.7557C45.0546 62.4783 44.5003 63.0264 43.8024 63.4C43.1046 63.7706 42.3264 63.9559 41.4679 63.9559C40.6033 63.9559 39.8221 63.769 39.1242 63.3954C38.4294 63.0187 37.8767 62.469 37.466 61.7464C37.0584 61.0208 36.8546 60.133 36.8546 59.0831C36.8546 58.027 37.0584 57.1377 37.466 56.4151C37.8767 55.6894 38.4294 55.1413 39.1242 54.7708C39.8221 54.3971 40.6033 54.2103 41.4679 54.2103C42.3264 54.2103 43.1046 54.3971 43.8024 54.7708C44.5003 55.1413 45.0546 55.6894 45.4653 56.4151C45.876 57.1377 46.0813 58.027 46.0813 59.0831ZM43.4319 59.0831C43.4319 58.5149 43.3562 58.0363 43.2049 57.6472C43.0567 57.255 42.8359 56.9586 42.5426 56.7579C42.2523 56.5541 41.8941 56.4522 41.4679 56.4522C41.0418 56.4522 40.6821 56.5541 40.3887 56.7579C40.0984 56.9586 39.8777 57.255 39.7263 57.6472C39.5781 58.0363 39.504 58.5149 39.504 59.0831C39.504 59.6513 39.5781 60.1314 39.7263 60.5236C39.8777 60.9127 40.0984 61.2091 40.3887 61.4129C40.6821 61.6137 41.0418 61.714 41.4679 61.714C41.8941 61.714 42.2523 61.6137 42.5426 61.4129C42.8359 61.2091 43.0567 60.9127 43.2049 60.5236C43.3562 60.1314 43.4319 59.6513 43.4319 59.0831ZM53.4333 57.4712C53.3932 57.3075 53.3299 57.1639 53.2434 57.0404C53.157 56.9138 53.0489 56.8073 52.9192 56.7208C52.7926 56.6313 52.6444 56.5649 52.4745 56.5216C52.3078 56.4753 52.1241 56.4522 51.9233 56.4522C51.491 56.4522 51.122 56.5556 50.8163 56.7625C50.5137 56.9694 50.2821 57.2674 50.1215 57.6565C49.964 58.0455 49.8853 58.5149 49.8853 59.0646C49.8853 59.6204 49.961 60.0959 50.1123 60.4912C50.2636 60.8864 50.489 61.1891 50.7885 61.399C51.0881 61.609 51.4601 61.714 51.9048 61.714C52.297 61.714 52.6228 61.6569 52.8821 61.5426C53.1446 61.4284 53.3407 61.2663 53.4704 61.0563C53.6001 60.8463 53.6649 60.5993 53.6649 60.3152L54.1096 60.3615H51.9419V58.5273H56.1476V59.8427C56.1476 60.7073 55.9639 61.4469 55.5965 62.0614C55.2321 62.6728 54.7287 63.1422 54.0864 63.4695C53.4472 63.7937 52.7139 63.9559 51.8863 63.9559C50.963 63.9559 50.1524 63.7598 49.4545 63.3676C48.7567 62.9754 48.2116 62.4165 47.8195 61.6909C47.4304 60.9652 47.2358 60.1021 47.2358 59.1016C47.2358 58.3173 47.3547 57.6225 47.5925 57.0173C47.8334 56.412 48.1669 55.901 48.593 55.4841C49.0191 55.0641 49.5117 54.7476 50.0706 54.5345C50.6295 54.3184 51.2286 54.2103 51.8678 54.2103C52.4298 54.2103 52.9516 54.2906 53.4333 54.4512C53.9182 54.6087 54.3458 54.8341 54.7164 55.1274C55.09 55.4177 55.3911 55.762 55.6196 56.1603C55.8481 56.5587 55.9871 56.9956 56.0365 57.4712H53.4333Z" fill="white"/>
<path d="M47.5632 15.6093L47.5632 24.4873C47.5632 27.2113 49.7466 29.4102 52.4515 29.4102H61.9375" stroke="white" stroke-width="2.6087" stroke-miterlimit="10"/>
<path fill-rule="evenodd" clip-rule="evenodd" d="M47.5643 24.4873V13H22.4929C21.9406 13 21.4929 13.4477 21.4929 14V50.1738H64.5053V29.4102H52.4526C49.7477 29.4102 47.5643 27.2113 47.5643 24.4873ZM21.4929 72C21.4929 72.5523 21.9406 73 22.4929 73H63.5053C64.0575 73 64.5053 72.5523 64.5053 72V67.1304H21.4929V72ZM50.0982 31.6363L54.861 36.4748C55.619 37.2449 55.619 38.4934 54.861 39.2635L50.0982 44.102C49.5928 44.6154 48.7735 44.6154 48.2681 44.102C47.7628 43.5886 47.7628 42.7563 48.2681 42.2429L52.5735 37.8691L48.2681 33.4954C47.7628 32.982 47.7628 32.1497 48.2681 31.6363C48.7735 31.1229 49.5928 31.1229 50.0982 31.6363ZM44.7002 31.0028C45.3826 31.2336 45.7485 31.974 45.5176 32.6564L41.9868 43.0911C41.7559 43.7735 41.0155 44.1395 40.3332 43.9086C39.6508 43.6777 39.2848 42.9374 39.5157 42.255L43.0466 31.8202C43.2775 31.1378 44.0178 30.7719 44.7002 31.0028ZM30.6661 36.4748C29.9081 37.2449 29.9081 38.4934 30.6661 39.2635L35.429 44.102C35.9344 44.6154 36.7537 44.6154 37.259 44.102C37.7644 43.5886 37.7644 42.7563 37.259 42.2429L32.9537 37.8691L37.259 33.4954C37.7644 32.982 37.7644 32.1497 37.259 31.6363C36.7537 31.1229 35.9344 31.1229 35.429 31.6363L30.6661 36.4748Z" fill="white"/>
</g>
</g>
<defs>
<radialGradient id="paint0_radial_2063_10032" cx="0" cy="0" r="1" gradientUnits="userSpaceOnUse" gradientTransform="rotate(45) scale(121.622)">
<stop stop-color="#D91FC6"/>
<stop offset="1" stop-color="#A339E3"/>
</radialGradient>
<clipPath id="clip0_2063_10032">
<rect width="86" height="86" fill="white"/>
</clipPath>
<clipPath id="clip1_2063_10032">
<rect width="56" height="60" fill="white" transform="translate(15 13)"/>
</clipPath>
</defs>
</svg>
