<svg width="91" height="103" viewBox="0 0 91 103" fill="none" xmlns="http://www.w3.org/2000/svg">
<path d="M53.0808 2.5V21.0457C53.0808 25.5271 56.7299 29.1445 61.2504 29.1445L81 29.1426" stroke="white" stroke-width="2.5" stroke-miterlimit="10"/>
<path fill-rule="evenodd" clip-rule="evenodd" d="M9.5105 102.105H8.2605V100.855V91.1994H10.7605V99.6048H80.1459V91.1994H82.6459V100.855V102.105H81.3959H9.5105ZM82.6459 63.3036V28.0355C82.6459 24.9439 81.3932 21.9801 79.1991 19.805L78.3986 20.6124L79.199 19.805L63.5672 4.3093C61.3736 2.13463 58.3897 0.896484 55.2809 0.896484H9.5105H8.2605V2.14648V63.3036H10.7605V3.39648H55.2809C57.7274 3.39648 60.0795 4.37203 61.8072 6.08476L62.6872 5.19704L61.8072 6.08478L77.439 21.5804C79.1662 23.2927 80.1459 25.62 80.1459 28.0355V63.3036H82.6459Z" fill="white"/>
<rect x="2" y="63.3027" width="86.9062" height="27.8958" rx="5.36458" stroke="white" stroke-width="2.5"/>
<path d="M34.3289 34.3339L26.3629 42.2999C25.9439 42.7189 25.9439 43.3983 26.3629 43.8173L34.3289 51.7833" stroke="white" stroke-width="2.5" stroke-linecap="round"/>
<path d="M55.7873 34.3339L63.7533 42.2999C64.1723 42.7189 64.1723 43.3983 63.7533 43.8173L55.7873 51.7833" stroke="white" stroke-width="2.5" stroke-linecap="round"/>
<path d="M47.599 33.7988L41.698 50.9655" stroke="white" stroke-width="2.5" stroke-linecap="round"/>
<path d="M24.1 85.377V69.7709H26.4547V83.35H33.5262V85.377H24.1ZM49.1608 77.5739C49.1608 79.2402 48.856 80.6728 48.2464 81.8717C47.6368 83.0655 46.8011 83.985 45.7393 84.6302C44.6827 85.2703 43.4812 85.5903 42.135 85.5903C40.7837 85.5903 39.5772 85.2703 38.5154 84.6302C37.4588 83.985 36.6256 83.063 36.016 81.8641C35.4064 80.6652 35.1016 79.2351 35.1016 77.5739C35.1016 75.9077 35.4064 74.4776 36.016 73.2838C36.6256 72.0849 37.4588 71.1654 38.5154 70.5253C39.5772 69.8801 40.7837 69.5575 42.135 69.5575C43.4812 69.5575 44.6827 69.8801 45.7393 70.5253C46.8011 71.1654 47.6368 72.0849 48.2464 73.2838C48.856 74.4776 49.1608 75.9077 49.1608 77.5739ZM46.829 77.5739C46.829 76.3039 46.6233 75.2345 46.2118 74.3658C45.8054 73.4921 45.2466 72.8317 44.5354 72.3846C43.8292 71.9325 43.0291 71.7064 42.135 71.7064C41.2358 71.7064 40.4332 71.9325 39.727 72.3846C39.0209 72.8317 38.4621 73.4921 38.0506 74.3658C37.6442 75.2345 37.441 76.3039 37.441 77.5739C37.441 78.8439 37.6442 79.9158 38.0506 80.7896C38.4621 81.6583 39.0209 82.3187 39.727 82.7709C40.4332 83.2179 41.2358 83.4414 42.135 83.4414C43.0291 83.4414 43.8292 83.2179 44.5354 82.7709C45.2466 82.3187 45.8054 81.6583 46.2118 80.7896C46.6233 79.9158 46.829 78.8439 46.829 77.5739ZM62.658 74.7011C62.5107 74.2388 62.3125 73.8248 62.0636 73.459C61.8198 73.0882 61.5277 72.7732 61.1873 72.5141C60.8469 72.25 60.4583 72.0493 60.0214 71.9122C59.5896 71.775 59.1146 71.7064 58.5964 71.7064C57.7176 71.7064 56.9251 71.9325 56.219 72.3846C55.5128 72.8367 54.954 73.4997 54.5425 74.3735C54.1361 75.2422 53.9329 76.3064 53.9329 77.5663C53.9329 78.8312 54.1387 79.9006 54.5501 80.7744C54.9616 81.6482 55.5255 82.3111 56.2418 82.7632C56.9581 83.2154 57.7735 83.4414 58.6879 83.4414C59.5363 83.4414 60.2754 83.2687 60.9053 82.9233C61.5404 82.5778 62.0306 82.0901 62.376 81.4602C62.7266 80.8252 62.9018 80.0784 62.9018 79.2199L63.5114 79.3342H59.046V77.391H65.1802V79.1665C65.1802 80.4772 64.9008 81.6151 64.342 82.5804C63.7883 83.5405 63.0212 84.2822 62.0407 84.8054C61.0654 85.3287 59.9477 85.5903 58.6879 85.5903C57.2756 85.5903 56.0361 85.2652 54.9692 84.6149C53.9075 83.9647 53.0794 83.0426 52.4851 81.8488C51.8907 80.6499 51.5935 79.2275 51.5935 77.5815C51.5935 76.3369 51.7662 75.2193 52.1117 74.2287C52.4571 73.2381 52.9423 72.3973 53.5671 71.7064C54.1971 71.0104 54.9362 70.4796 55.7846 70.1138C56.6381 69.743 57.5703 69.5575 58.5812 69.5575C59.4245 69.5575 60.2094 69.682 60.9358 69.9309C61.6674 70.1798 62.3176 70.5329 62.8866 70.9901C63.4606 71.4473 63.9356 71.9909 64.3115 72.6208C64.6875 73.2457 64.9415 73.9391 65.0736 74.7011H62.658Z" fill="white"/>
</svg>
